ffmpeg started on 2016-12-06 at 20:54:05
Report written to "Output/x264/results/ffmpeg/sintelmedium6000k.log"
Command line:
Tools/ffmpeg/ffmpeg -benchmark -y -i Input/y4m/sintel.y4m -c:v libx264 -preset medium -b:v 6000k -an Output/x264/encoded/sintelmedium6000k.mkv
ffmpeg version N-82227-gdb23fde Copyright (c) 2000-2016 the FFmpeg developers
  built with gcc 5.4.0 (Ubuntu 5.4.0-6ubuntu1~16.04.2) 20160609
  configuration: --prefix=/home/jaroslav/ffmpeg_build --pkg-config-flags=--static --extra-cflags=-I/home/jaroslav/ffmpeg_build/include --extra-ldflags=-L/home/jaroslav/ffmpeg_build/lib --bindir=/home/jaroslav/bin --enable-gpl --enable-libass --enable-libfdk-aac --enable-libfreetype --enable-libmp3lame --enable-libopus --enable-libtheora --enable-libvorbis --enable-libvpx --enable-libx264 --enable-libx265 --enable-nvenc --enable-libmfx --enable-libxvid --enable-libgsm --enable-libopencore-amrnb --enable-version3 --enable-nonfree
  libavutil      55. 35.100 / 55. 35.100
  libavcodec     57. 66.101 / 57. 66.101
  libavformat    57. 57.100 / 57. 57.100
  libavdevice    57.  2.100 / 57.  2.100
  libavfilter     6. 66.100 /  6. 66.100
  libswscale      4.  3.100 /  4.  3.100
  libswresample   2.  4.100 /  2.  4.100
  libpostproc    54.  2.100 / 54.  2.100
Input #0, yuv4mpegpipe, from 'Input/y4m/sintel.y4m':
  Duration: 00:00:20.83, start: 0.000000, bitrate: 2057307 kb/s
    Stream #0:0: Video: rawvideo (I420 / 0x30323449), yuv420p(progressive), 4096x1744, SAR 1:1 DAR 256:109, 24 fps, 24 tbr, 24 tbn, 24 tbc
[libx264 @ 0x34e31c0] using SAR=1/1
[libx264 @ 0x34e31c0] using cpu capabilities: MMX2 SSE2Fast SSSE3 SSE4.2 AVX FMA3 AVX2 LZCNT BMI2
[libx264 @ 0x34e31c0] profile High, level 5.1
[libx264 @ 0x34e31c0] 264 - core 148 - H.264/MPEG-4 AVC codec - Copyleft 2003-2016 - http://www.videolan.org/x264.html - options: cabac=1 ref=3 deblock=1:0:0 analyse=0x3:0x113 me=hex subme=7 psy=1 psy_rd=1.00:0.00 mixed_ref=1 me_range=16 chroma_me=1 trellis=1 8x8dct=1 cqm=0 deadzone=21,11 fast_pskip=1 chroma_qp_offset=-2 threads=6 lookahead_threads=1 sliced_threads=0 nr=0 decimate=1 interlaced=0 bluray_compat=0 constrained_intra=0 bframes=3 b_pyramid=2 b_adapt=1 b_bias=0 direct=1 weightb=1 open_gop=0 weightp=2 keyint=250 keyint_min=24 scenecut=40 intra_refresh=0 rc_lookahead=40 rc=abr mbtree=1 bitrate=6000 ratetol=1.0 qcomp=0.60 qpmin=0 qpmax=69 qpstep=4 ip_ratio=1.40 aq=1:1.00
Output #0, matroska, to 'Output/x264/encoded/sintelmedium6000k.mkv':
  Metadata:
    encoder         : Lavf57.57.100
    Stream #0:0: Video: h264 (libx264) (H264 / 0x34363248), yuv420p, 4096x1744 [SAR 1:1 DAR 256:109], q=-1--1, 6000 kb/s, 24 fps, 1k tbn, 24 tbc
    Metadata:
      encoder         : Lavc57.66.101 libx264
    Side data:
      cpb: bitrate max/min/avg: 0/0/6000000 buffer size: 0 vbv_delay: -1
Stream mapping:
  Stream #0:0 -> #0:0 (rawvideo (native) -> h264 (libx264))
Press [q] to stop, [?] for help
frame=   11 fps=0.0 q=0.0 size=       0kB time=00:00:00.00 bitrate=N/A speed=   0x    frame=   20 fps= 17 q=0.0 size=       0kB time=00:00:00.00 bitrate=N/A speed=   0x    frame=   29 fps= 17 q=0.0 size=       0kB time=00:00:00.00 bitrate=N/A speed=   0x    frame=   33 fps= 15 q=0.0 size=       0kB time=00:00:00.00 bitrate=N/A speed=   0x    frame=   42 fps= 15 q=0.0 size=       0kB time=00:00:00.00 bitrate=N/A speed=   0x    frame=   45 fps= 14 q=0.0 size=       0kB time=00:00:00.00 bitrate=N/A speed=   0x    frame=   47 fps=8.9 q=0.0 size=       0kB time=00:00:00.00 bitrate=N/A speed=   0x    frame=   48 fps=5.6 q=0.0 size=       0kB time=00:00:00.00 bitrate=N/A speed=   0x    frame=   49 fps=4.2 q=0.0 size=       0kB time=00:00:00.00 bitrate=N/A speed=   0x    frame=   54 fps=4.3 q=38.0 size=       1kB time=00:00:00.04 bitrate= 136.6kbits/s speed=0.00341x    frame=   57 fps=4.3 q=46.0 size=       1kB time=00:00:00.16 bitrate=  35.0kbits/s speed=0.0126x    frame=   61 fps=4.4 q=47.0 size=       1kB time=00:00:00.33 bitrate=  17.6kbits/s speed=0.0241x    frame=   66 fps=4.6 q=47.0 size=       1kB time=00:00:00.54 bitrate=  10.8kbits/s speed=0.0378x    frame=   72 fps=4.8 q=47.0 size=       1kB time=00:00:00.79 bitrate=   7.4kbits/s speed=0.0531x    frame=   75 fps=4.8 q=46.0 size=       1kB time=00:00:00.91 bitrate=   6.4kbits/s speed=0.0592x    frame=   82 fps=5.1 q=45.0 size=       1kB time=00:00:01.20 bitrate=   4.9kbits/s speed=0.0751x    frame=   86 fps=5.2 q=45.0 size=       1kB time=00:00:01.37 bitrate=   4.3kbits/s speed=0.0827x    frame=   91 fps=5.3 q=45.0 size=       1kB time=00:00:01.58 bitrate=   3.7kbits/s speed=0.092x    frame=   97 fps=5.5 q=44.0 size=       1kB time=00:00:01.83 bitrate=   3.2kbits/s speed=0.103x    frame=  102 fps=5.6 q=44.0 size=       1kB time=00:00:02.04 bitrate=   2.9kbits/s speed=0.112x    frame=  106 fps=5.6 q=44.0 size=       1kB time=00:00:02.20 bitrate=   2.7kbits/s speed=0.118x    frame=  111 fps=5.7 q=44.0 size=       1kB time=00:00:02.41 bitrate=   2.4kbits/s speed=0.125x    frame=  116 fps=5.8 q=43.0 size=       1kB time=00:00:02.62 bitrate=   2.2kbits/s speed=0.132x    frame=  119 fps=5.8 q=43.0 size=       1kB time=00:00:02.75 bitrate=   2.1kbits/s speed=0.135x    frame=  124 fps=5.9 q=43.0 size=       1kB time=00:00:02.95 bitrate=   2.0kbits/s speed=0.14x    frame=  128 fps=5.9 q=43.0 size=       1kB time=00:00:03.12 bitrate=   1.9kbits/s speed=0.144x    frame=  132 fps=5.9 q=43.0 size=       1kB time=00:00:03.29 bitrate=   1.8kbits/s speed=0.148x    frame=  137 fps=6.0 q=43.0 size=       1kB time=00:00:03.50 bitrate=   1.7kbits/s speed=0.153x    frame=  141 fps=6.0 q=43.0 size=       1kB time=00:00:03.66 bitrate=   1.6kbits/s speed=0.156x    frame=  146 fps=6.1 q=43.0 size=       1kB time=00:00:03.87 bitrate=   1.5kbits/s speed=0.161x    frame=  152 fps=6.2 q=42.0 size=    3329kB time=00:00:04.12 bitrate=6608.8kbits/s speed=0.168x    frame=  157 fps=6.2 q=42.0 size=    3329kB time=00:00:04.33 bitrate=6291.6kbits/s speed=0.172x    frame=  163 fps=6.3 q=42.0 size=    3329kB time=00:00:04.58 bitrate=5948.5kbits/s speed=0.178x    frame=  170 fps=6.5 q=42.0 size=    3329kB time=00:00:04.87 bitrate=5592.3kbits/s speed=0.185x    frame=  173 fps=6.4 q=42.0 size=    3329kB time=00:00:05.00 bitrate=5452.5kbits/s speed=0.186x    frame=  179 fps=6.5 q=42.0 size=    3329kB time=00:00:05.25 bitrate=5192.9kbits/s speed=0.191x    frame=  184 fps=6.6 q=42.0 size=    3329kB time=00:00:05.45 bitrate=4995.0kbits/s speed=0.195x    frame=  190 fps=6.6 q=42.0 size=    3329kB time=00:00:05.70 bitrate=4776.3kbits/s speed= 0.2x    frame=  195 fps=6.7 q=42.0 size=    3329kB time=00:00:05.91 bitrate=4607.6kbits/s speed=0.203x    frame=  200 fps=6.7 q=42.0 size=    3329kB time=00:00:06.12 bitrate=4451.2kbits/s speed=0.206x    frame=  207 fps=6.8 q=42.0 size=    4925kB time=00:00:06.41 bitrate=6286.0kbits/s speed=0.211x    frame=  213 fps=6.9 q=41.0 size=    4925kB time=00:00:06.66 bitrate=6050.4kbits/s speed=0.216x    frame=  217 fps=6.9 q=41.0 size=    4925kB time=00:00:06.83 bitrate=5903.4kbits/s speed=0.217x    frame=  223 fps=6.9 q=41.0 size=    4925kB time=00:00:07.08 bitrate=5695.1kbits/s speed=0.221x    frame=  229 fps=7.0 q=39.0 size=    4925kB time=00:00:07.33 bitrate=5500.9kbits/s speed=0.224x    frame=  234 fps=7.0 q=41.0 size=    5589kB time=00:00:07.54 bitrate=6070.2kbits/s speed=0.226x    frame=  240 fps=7.0 q=41.0 size=    5589kB time=00:00:07.79 bitrate=5875.5kbits/s speed=0.228x    frame=  247 fps=7.1 q=40.0 size=    5589kB time=00:00:08.08 bitrate=5664.0kbits/s speed=0.233x    frame=  251 fps=7.1 q=40.0 size=    5589kB time=00:00:08.25 bitrate=5549.3kbits/s speed=0.234x    frame=  256 fps=7.2 q=40.0 size=    5589kB time=00:00:08.45 bitrate=5412.9kbits/s speed=0.236x    frame=  262 fps=7.2 q=40.0 size=    5589kB time=00:00:08.70 bitrate=5257.5kbits/s speed=0.24x    frame=  265 fps=7.2 q=40.0 size=    5589kB time=00:00:08.83 bitrate=5183.1kbits/s speed=0.24x    frame=  271 fps=7.2 q=40.0 size=    5589kB time=00:00:09.08 bitrate=5040.4kbits/s speed=0.243x    frame=  279 fps=7.3 q=40.0 size=    5589kB time=00:00:09.41 bitrate=4861.7kbits/s speed=0.248x    frame=  284 fps=7.4 q=40.0 size=    5589kB time=00:00:09.62 bitrate=4756.6kbits/s speed=0.25x    frame=  290 fps=7.4 q=40.0 size=    5589kB time=00:00:09.87 bitrate=4636.2kbits/s speed=0.253x    frame=  297 fps=7.5 q=39.0 size=    5589kB time=00:00:10.16 bitrate=4503.1kbits/s speed=0.257x    frame=  303 fps=7.5 q=39.0 size=    5589kB time=00:00:10.41 bitrate=4395.0kbits/s speed=0.259x    frame=  312 fps=7.5 q=39.0 size=    5589kB time=00:00:10.79 bitrate=4242.3kbits/s speed=0.26x    frame=  322 fps=7.6 q=39.0 size=    7415kB time=00:00:11.20 bitrate=5419.3kbits/s speed=0.266x    frame=  330 fps=7.7 q=39.0 size=    7415kB time=00:00:11.54 bitrate=5262.4kbits/s speed=0.269x    frame=  337 fps=7.8 q=38.0 size=    7415kB time=00:00:11.83 bitrate=5133.0kbits/s speed=0.272x    frame=  345 fps=7.8 q=38.0 size=    7415kB time=00:00:12.16 bitrate=4992.1kbits/s speed=0.277x    frame=  352 fps=7.9 q=38.0 size=    7415kB time=00:00:12.45 bitrate=4875.5kbits/s speed=0.28x    frame=  359 fps=8.0 q=38.0 size=    7415kB time=00:00:12.75 bitrate=4763.9kbits/s speed=0.283x    frame=  366 fps=8.0 q=37.0 size=    7415kB time=00:00:13.04 bitrate=4657.2kbits/s speed=0.287x    frame=  375 fps=8.1 q=37.0 size=    7415kB time=00:00:13.41 bitrate=4527.1kbits/s speed=0.291x    frame=  381 fps=8.2 q=37.0 size=    7415kB time=00:00:13.66 bitrate=4444.3kbits/s speed=0.293x    frame=  389 fps=8.2 q=36.0 size=    7415kB time=00:00:14.00 bitrate=4338.6kbits/s speed=0.297x    frame=  395 fps=8.3 q=36.0 size=    7415kB time=00:00:14.25 bitrate=4262.5kbits/s speed=0.299x    frame=  403 fps=8.4 q=36.0 size=    7415kB time=00:00:14.58 bitrate=4165.1kbits/s speed=0.302x    frame=  411 fps=8.4 q=35.0 size=    7415kB time=00:00:14.91 bitrate=4071.9kbits/s speed=0.306x    frame=  418 fps=8.4 q=35.0 size=    9174kB time=00:00:15.20 bitrate=4941.6kbits/s speed=0.307x    frame=  426 fps=8.5 q=35.0 size=    9174kB time=00:00:15.54 bitrate=4835.4kbits/s speed=0.309x    frame=  430 fps=8.5 q=35.0 size=    9174kB time=00:00:15.70 bitrate=4784.3kbits/s speed=0.309x    frame=  438 fps=8.5 q=35.0 size=    9174kB time=00:00:16.04 bitrate=4684.7kbits/s speed=0.312x    frame=  445 fps=8.5 q=35.0 size=    9174kB time=00:00:16.33 bitrate=4601.2kbits/s speed=0.313x    frame=  450 fps=8.6 q=35.0 size=    9174kB time=00:00:16.54 bitrate=4543.1kbits/s speed=0.314x    frame=  453 fps=8.5 q=35.0 size=    9174kB time=00:00:16.66 bitrate=4509.0kbits/s speed=0.314x    frame=  459 fps=8.6 q=35.0 size=    9174kB time=00:00:16.91 bitrate=4442.4kbits/s speed=0.315x    frame=  466 fps=8.6 q=35.0 size=    9174kB time=00:00:17.20 bitrate=4367.3kbits/s speed=0.317x    frame=  470 fps=8.6 q=35.0 size=   10747kB time=00:00:17.37 bitrate=5066.8kbits/s speed=0.317x    frame=  478 fps=8.6 q=35.0 size=   10747kB time=00:00:17.70 bitrate=4971.5kbits/s speed=0.319x    frame=  485 fps=8.7 q=35.0 size=   10747kB time=00:00:18.00 bitrate=4890.9kbits/s speed=0.321x    frame=  491 fps=8.7 q=35.0 size=   10747kB time=00:00:18.25 bitrate=4823.9kbits/s speed=0.323x    frame=  498 fps=8.7 q=35.0 size=   10747kB time=00:00:18.54 bitrate=4747.9kbits/s speed=0.324x    frame=  500 fps=8.2 q=-1.0 Lsize=   12965kB time=00:00:20.70 bitrate=5128.5kbits/s speed=0.341x    
video:12960kB audio:0kB subtitle:0kB other streams:0kB global headers:0kB muxing overhead: 0.036644%
bench: utime=184.808s
bench: maxrss=1569532kB
[libx264 @ 0x34e31c0] frame I:8     Avg QP:30.39  size: 92474
[libx264 @ 0x34e31c0] frame P:269   Avg QP:35.65  size: 32358
[libx264 @ 0x34e31c0] frame B:223   Avg QP:33.81  size: 17158
[libx264 @ 0x34e31c0] consecutive B-frames: 37.0%  8.4%  6.6% 48.0%
[libx264 @ 0x34e31c0] mb I  I16..4: 28.1% 69.3%  2.6%
[libx264 @ 0x34e31c0] mb P  I16..4: 17.4% 23.6%  0.2%  P16..4: 16.9%  1.2%  0.4%  0.0%  0.0%    skip:40.2%
[libx264 @ 0x34e31c0] mb B  I16..4:  1.2%  1.9%  0.1%  B16..8: 25.9%  1.2%  0.1%  direct: 0.4%  skip:69.2%  L0:41.0% L1:57.8% BI: 1.3%
[libx264 @ 0x34e31c0] final ratefactor: 32.27
[libx264 @ 0x34e31c0] 8x8 transform intra:58.1% inter:93.6%
[libx264 @ 0x34e31c0] coded y,uvDC,uvAC intra: 10.0% 18.9% 0.8% inter: 3.2% 2.7% 0.0%
[libx264 @ 0x34e31c0] i16 v,h,dc,p: 32% 35%  7% 27%
[libx264 @ 0x34e31c0] i8 v,h,dc,ddl,ddr,vr,hd,vl,hu: 21% 13% 56%  2%  2%  2%  2%  1%  2%
[libx264 @ 0x34e31c0] i4 v,h,dc,ddl,ddr,vr,hd,vl,hu: 21% 26% 11%  5% 10%  8% 11%  4%  5%
[libx264 @ 0x34e31c0] i8c dc,h,v,p: 85%  8%  7%  1%
[libx264 @ 0x34e31c0] Weighted P-Frames: Y:1.1% UV:0.7%
[libx264 @ 0x34e31c0] ref P L0: 69.1% 14.6% 11.9%  4.3%  0.0%
[libx264 @ 0x34e31c0] ref B L0: 92.0%  6.7%  1.4%
[libx264 @ 0x34e31c0] ref B L1: 98.1%  1.9%
[libx264 @ 0x34e31c0] kb/s:5095.74
